<svg id="Layer_1" xmlns="http://www.w3.org/2000/svg" version="1.1" viewBox="0 0 36 36">
  <!-- Generator: Adobe Illustrator 29.4.0, SVG Export Plug-In . SVG Version: 2.1.0 Build 152)  -->
  <path d="M206.6,2.7c-1.9-1.8-4.6-2.7-7.2-2.7-2.6,0-5.2.7-7.6,1.8-6.6,2.9-12.1,8.2-15.2,14.7-1.1,2.3-1.8,4.7-2,7.1-.1,1.9,0,3.8.7,5.7,1.1,3.5,5.2,5.6,8.7,5.9,3.6.3,7.1-.9,10.2-2.5,5.7-3.1,10.4-7.9,13.3-13.7,1.3-2.6,2.2-5.4,2.2-8.3,0-2.9-1-5.8-3.1-7.8ZM199.6,16c-1.5,0-2.9-.5-4.1-1.3v6c0,3-2.4,5.4-5.4,5.4-3,0-5.4-2.4-5.4-5.4,0-3,2.4-5.4,5.4-5.4.2,0,.5,0,.7,0v3c-1.3-.4-2.7.3-3.1,1.6-.4,1.3.3,2.7,1.6,3.1,1.3.4,2.7-.3,3.1-1.6,0-.2.1-.5.1-.7v-11.7h2.9c0,.2,0,.5,0,.7.1.6.3,1.1.6,1.5.3.5.7.9,1.2,1.2.7.4,1.4.7,2.2.7v2.9Z" style="fill: #231f20;"/>
  <polygon points="144.9 11.9 153.4 23.1 152.1 23.1 143.5 11.9 144.9 11.9" style="fill: #231f20;"/>
  <path d="M163,2.7c-1.9-1.8-4.6-2.7-7.2-2.7-2.6,0-5.2.7-7.6,1.8-6.6,2.9-12.1,8.2-15.2,14.7-1.1,2.3-1.8,4.7-2,7.1-.1,1.9,0,3.8.7,5.7,1.1,3.5,5.2,5.6,8.7,5.9,3.6.3,7.1-.9,10.2-2.5,5.7-3.1,10.4-7.9,13.3-13.7,1.3-2.6,2.2-5.4,2.2-8.3,0-2.9-1-5.8-3.1-7.8ZM151.4,24.5l-3.7-4.9-4.3,4.9h-2.4l5.5-6.3-5.8-7.6h4.9l3.4,4.4,3.9-4.4h2.4l-5.2,5.9,6.1,8h-4.8Z" style="fill: #231f20;"/>
  <path d="M75.7,2.7C73.8.9,71.2,0,68.5,0c-2.6,0-5.2.7-7.6,1.8-6.6,2.9-12.1,8.2-15.2,14.7-1.1,2.3-1.8,4.7-2,7.1-.1,1.9,0,3.8.7,5.7,1.1,3.5,5.2,5.6,8.7,5.9,3.6.3,7.1-.9,10.2-2.5,5.7-3.1,10.4-7.9,13.3-13.7,1.3-2.6,2.2-5.4,2.2-8.3,0-2.9-1-5.8-3.1-7.8ZM66.1,12.2c-.3,0-.7,0-1.2,0-1.8,0-2.4.7-2.4,2.4v1.2h3.5l-.6,3.3h-2.9v7.1h-3.9v-7.1h-2.2v-3.3h2.2v-1.4c0-3.6,1.7-5.3,5.2-5.3s1.8.1,2.3.3v3Z" style="fill: #231f20;"/>
  <path d="M107.3,17.6c0,1.4-1.1,2.5-2.5,2.5s-2.5-1.1-2.5-2.5,1.1-2.5,2.5-2.5,2.5,1.1,2.5,2.5Z" style="fill: #231f20;"/>
  <path d="M110.7,13.1c-.3-.7-.8-1.2-1.4-1.4-1-.4-3.3-.3-4.4-.3s-3.4,0-4.4.3c-.7.3-1.2.8-1.4,1.4-.4,1-.3,3.3-.3,4.4s0,3.4.3,4.4c.3.7.8,1.2,1.4,1.4,1,.4,3.3.3,4.4.3s3.4,0,4.4-.3c.7-.3,1.2-.8,1.4-1.4.4-1,.3-3.3.3-4.4s0-3.4-.3-4.4ZM104.8,21.4c-2.1,0-3.8-1.7-3.8-3.8s1.7-3.8,3.8-3.8,3.8,1.7,3.8,3.8-1.7,3.8-3.8,3.8ZM108.8,14.4c-.5,0-.9-.4-.9-.9s.4-.9.9-.9.9.4.9.9-.4.9-.9.9Z" style="fill: #231f20;"/>
  <path d="M119.4,2.7C117.5.9,114.8,0,112.1,0c-2.6,0-5.2.7-7.6,1.8-6.6,2.9-12.1,8.2-15.2,14.7-1.1,2.3-1.8,4.7-2,7.1-.1,1.9,0,3.8.7,5.7,1.1,3.5,5.2,5.6,8.7,5.9,3.6.3,7.1-.9,10.2-2.5,5.7-3.1,10.4-7.9,13.3-13.7,1.3-2.6,2.2-5.4,2.2-8.3,0-2.9-1-5.8-3.1-7.8ZM112.3,20.7c0,1.2-.3,2.3-1.2,3.1-.9.9-1.9,1.2-3.1,1.2-1.2,0-5,0-6.2,0-1.2,0-2.3-.3-3.1-1.2-.9-.9-1.2-1.9-1.2-3.1,0-1.2,0-5,0-6.2,0-1.2.3-2.3,1.2-3.1.9-.9,1.9-1.2,3.1-1.2,1.2,0,5,0,6.2,0,1.2,0,2.3.3,3.1,1.2.9.9,1.2,1.9,1.2,3.1,0,1.2,0,4.9,0,6.2Z" style="fill: #231f20;"/>
  <polygon points="15.7 14.9 20.5 17.6 15.7 20.3 15.7 14.9" style="fill: #231f20;"/>
  <path d="M32.5,3.2c-1.9-1.8-4.6-2.7-7.2-2.7-2.6,0-5.2.7-7.6,1.8-6.6,2.9-12.1,8.2-15.2,14.7-1.1,2.3-1.8,4.7-2,7.1-.1,1.9,0,3.8.7,5.7,1.1,3.5,5.2,5.6,8.7,5.9,3.6.3,7.1-.9,10.2-2.5,5.7-3.1,10.4-7.9,13.3-13.7,1.3-2.6,2.2-5.4,2.2-8.3,0-2.9-1-5.8-3.1-7.8ZM26.8,22.4c-.2.8-.8,1.4-1.6,1.6-1.4.4-7.1.4-7.1.4,0,0-5.7,0-7.1-.4-.8-.2-1.4-.8-1.6-1.6-.4-1.4-.4-4.4-.4-4.4,0,0,0-3,.4-4.4.2-.8.8-1.4,1.6-1.6,1.4-.4,7.1-.4,7.1-.4,0,0,5.7,0,7.1.4.8.2,1.4.8,1.6,1.6.4,1.4.4,4.4.4,4.4,0,0,0,3-.4,4.4Z" style="fill: #231f20;"/>
</svg>